<svg width="32" height="32" viewBox="0 0 32 32" fill="none" xmlns="http://www.w3.org/2000/svg">
<g filter="url(#filter0_b_8_1029)">
<rect width="32" height="32" rx="16" fill="white" fill-opacity="0.08"/>
<path d="M21.9647 13.5366C21.9574 13.032 21.864 12.5313 21.6854 12.0593C21.3727 11.2533 20.736 10.616 19.93 10.304C19.464 10.1286 18.9714 10.0346 18.4727 10.024C17.8314 9.9953 17.628 9.9873 16 9.9873C14.372 9.9873 14.1634 9.9873 13.5267 10.024C13.0287 10.0346 12.536 10.1286 12.07 10.304C11.264 10.616 10.6267 11.2533 10.3147 12.0593C10.1394 12.5253 10.0447 13.018 10.0354 13.516C10.0067 14.158 9.99805 14.3613 9.99805 15.9893C9.99805 17.6173 9.99805 17.8253 10.0354 18.4626C10.0454 18.9613 10.1394 19.4533 10.3147 19.9206C10.6274 20.726 11.264 21.3633 12.0707 21.6753C12.5347 21.8566 13.0274 21.9593 13.5274 21.9753C14.1694 22.004 14.3727 22.0126 16.0007 22.0126C17.6287 22.0126 17.8374 22.0126 18.474 21.9753C18.972 21.9653 19.4647 21.8713 19.9314 21.696C20.7374 21.3833 21.374 20.746 21.6867 19.9406C21.862 19.474 21.956 18.982 21.966 18.4826C21.9947 17.8413 22.0034 17.638 22.0034 16.0093C22.002 14.3813 22.002 14.1746 21.9647 13.5366ZM15.996 19.068C14.2934 19.068 12.914 17.6886 12.914 15.986C12.914 14.2833 14.2934 12.904 15.996 12.904C17.6974 12.904 19.078 14.2833 19.078 15.986C19.078 17.6886 17.6974 19.068 15.996 19.068ZM19.2007 13.5086C18.8027 13.5086 18.482 13.1873 18.482 12.79C18.482 12.3926 18.8027 12.0713 19.2007 12.0713C19.5974 12.0713 19.9187 12.3926 19.9187 12.79C19.9187 13.1873 19.5974 13.5086 19.2007 13.5086Z" fill="#D0BC7A"/>
<path d="M15.996 17.988C17.1017 17.988 17.998 17.0917 17.998 15.986C17.998 14.8803 17.1017 13.984 15.996 13.984C14.8903 13.984 13.994 14.8803 13.994 15.986C13.994 17.0917 14.8903 17.988 15.996 17.988Z" fill="#D0BC7A"/>
<rect x="0.5" y="0.5" width="31" height="31" rx="15.5" stroke="#D0BC7A"/>
</g>
<defs>
<filter id="filter0_b_8_1029" x="-24" y="-24" width="80" height="80" filterUnits="userSpaceOnUse" color-interpolation-filters="sRGB">
<feFlood flood-opacity="0" result="BackgroundImageFix"/>
<feGaussianBlur in="BackgroundImage" stdDeviation="12"/>
<feComposite in2="SourceAlpha" operator="in" result="effect1_backgroundBlur_8_1029"/>
<feBlend mode="normal" in="SourceGraphic" in2="effect1_backgroundBlur_8_1029" result="shape"/>
</filter>
</defs>
</svg>
